<svg xmlns="http://www.w3.org/2000/svg" xmlns:xlink="http://www.w3.org/1999/xlink" width="2000" zoomAndPan="magnify" viewBox="0 0 1500 1499.999933" height="2000" preserveAspectRatio="xMidYMid meet" version="1.0"><defs><g/><clipPath id="c3bc5c5756"><path d="M 131.757812 570 L 1368.238281 570 L 1368.238281 930 L 131.757812 930 Z M 131.757812 570 " clip-rule="nonzero"/></clipPath></defs><rect x="-150" width="1800" fill="#ffffff" y="-149.999993" height="1799.99992" fill-opacity="1"/><rect x="-150" width="1800" fill="#ffffff" y="-149.999993" height="1799.99992" fill-opacity="1"/><g clip-path="url(#c3bc5c5756)"><path stroke-linecap="butt" transform="matrix(0.75, 0, 0, 0.75, 131.759672, 569.999931)" fill="none" stroke-linejoin="miter" d="M -0.0024788 0.000092128 L 1648.638288 0.000092128 L 1648.638288 480.000133 L -0.0024788 480.000133 Z M -0.0024788 0.000092128 " stroke="#000000" stroke-width="50" stroke-opacity="1" stroke-miterlimit="4"/></g><g fill="#000000" fill-opacity="1"><g transform="translate(202.218767, 854.999906)"><g><path d="M 118.21875 2.9375 C 102.394531 2.9375 87.863281 0.320312 74.625 -4.90625 C 61.394531 -10.132812 49.921875 -17.601562 40.203125 -27.3125 C 30.492188 -37.03125 22.976562 -48.628906 17.65625 -62.109375 C 12.332031 -75.585938 9.671875 -90.578125 9.671875 -107.078125 C 9.671875 -123.878906 12.425781 -139.113281 17.9375 -152.78125 C 23.457031 -166.457031 31.195312 -178.175781 41.15625 -187.9375 C 51.125 -197.707031 62.941406 -205.226562 76.609375 -210.5 C 90.285156 -215.769531 105.226562 -218.40625 121.4375 -218.40625 C 135.882812 -218.40625 149.257812 -216.351562 161.5625 -212.25 C 173.875 -208.15625 184.863281 -202.320312 194.53125 -194.75 C 204.195312 -187.1875 212.15625 -178.082031 218.40625 -167.4375 L 170.65625 -141.9375 C 165.28125 -151.507812 158.414062 -158.6875 150.0625 -163.46875 C 141.71875 -168.257812 132.175781 -170.65625 121.4375 -170.65625 C 110.695312 -170.65625 101.078125 -168.238281 92.578125 -163.40625 C 84.078125 -158.570312 77.410156 -151.539062 72.578125 -142.3125 C 67.742188 -133.082031 65.328125 -121.828125 65.328125 -108.546875 C 65.328125 -96.140625 67.597656 -85.125 72.140625 -75.5 C 76.679688 -65.882812 83.296875 -58.34375 91.984375 -52.875 C 100.679688 -47.40625 111.234375 -44.671875 123.640625 -44.671875 C 128.804688 -44.671875 134.003906 -45.234375 139.234375 -46.359375 C 144.460938 -47.484375 149.394531 -49.316406 154.03125 -51.859375 C 158.664062 -54.398438 162.71875 -57.769531 166.1875 -61.96875 C 169.65625 -66.164062 172.269531 -71.289062 174.03125 -77.34375 L 123.921875 -77.34375 L 123.921875 -121.4375 L 226.171875 -121.4375 L 226.171875 0 L 182.953125 0 L 182.953125 -23.140625 C 176.222656 -15.140625 167.582031 -8.789062 157.03125 -4.09375 C 146.488281 0.59375 133.550781 2.9375 118.21875 2.9375 Z M 118.21875 2.9375 "/></g></g><g transform="translate(444.064448, 854.999906)"><g><path d="M 135.9375 0 L 80.28125 -84.234375 L 79.828125 -84.234375 L 79.828125 0 L 24.03125 0 L 24.03125 -215.328125 L 97.859375 -215.328125 C 106.929688 -215.328125 114.738281 -215.007812 121.28125 -214.375 C 127.832031 -213.738281 133.5 -212.832031 138.28125 -211.65625 C 143.0625 -210.488281 147.359375 -209.03125 151.171875 -207.28125 C 162.796875 -201.707031 171.097656 -193.84375 176.078125 -183.6875 C 181.054688 -173.53125 183.546875 -161.617188 183.546875 -147.953125 C 183.546875 -140.234375 182.445312 -132.859375 180.25 -125.828125 C 178.050781 -118.796875 174.554688 -112.445312 169.765625 -106.78125 C 164.984375 -101.125 158.6875 -96.4375 150.875 -92.71875 C 149.019531 -91.84375 147.039062 -91.015625 144.9375 -90.234375 C 142.84375 -89.453125 140.523438 -88.71875 137.984375 -88.03125 L 202.15625 0 Z M 119.390625 -164.359375 C 116.066406 -166.796875 112.0625 -168.207031 107.375 -168.59375 C 102.6875 -168.988281 96.78125 -169.1875 89.65625 -169.1875 L 79.828125 -169.1875 L 79.828125 -119.09375 L 89.65625 -119.09375 C 97.070312 -119.09375 103.144531 -119.285156 107.875 -119.671875 C 112.613281 -120.066406 116.546875 -121.484375 119.671875 -123.921875 C 122.117188 -125.679688 124.070312 -128.144531 125.53125 -131.3125 C 127 -134.488281 127.734375 -138.71875 127.734375 -144 C 127.734375 -149.269531 126.953125 -153.539062 125.390625 -156.8125 C 123.828125 -160.082031 121.828125 -162.597656 119.390625 -164.359375 Z M 119.390625 -164.359375 "/></g></g><g transform="translate(647.531229, 854.999906)"><g><path d="M 171.96875 0 L 158.0625 -39.84375 L 71.921875 -39.84375 L 58.15625 0 L 1.46875 0 L 80.71875 -215.328125 L 149.421875 -215.328125 L 228.65625 0 Z M 87.890625 -85.84375 L 142.09375 -85.84375 L 114.984375 -163.765625 Z M 87.890625 -85.84375 "/></g></g><g transform="translate(877.658161, 854.999906)"><g><path d="M 24.03125 0 L 24.03125 -215.328125 L 107.375 -215.328125 C 124.945312 -215.328125 140.300781 -212.8125 153.4375 -207.78125 C 166.570312 -202.757812 177.484375 -195.535156 186.171875 -186.109375 C 194.867188 -176.679688 201.363281 -165.351562 205.65625 -152.125 C 209.957031 -138.894531 212.109375 -124.078125 212.109375 -107.671875 C 212.109375 -91.359375 209.957031 -76.582031 205.65625 -63.34375 C 201.363281 -50.113281 194.867188 -38.785156 186.171875 -29.359375 C 177.484375 -19.941406 166.570312 -12.691406 153.4375 -7.609375 C 140.300781 -2.535156 124.945312 0 107.375 0 Z M 79.828125 -48.921875 L 104.4375 -48.921875 C 121.332031 -48.921875 133.710938 -53.800781 141.578125 -63.5625 C 149.441406 -73.332031 153.375 -88.035156 153.375 -107.671875 C 153.375 -127.390625 149.441406 -142.179688 141.578125 -152.046875 C 133.710938 -161.910156 121.332031 -166.84375 104.4375 -166.84375 L 79.828125 -166.84375 Z M 79.828125 -48.921875 "/></g></g><g transform="translate(1100.314392, 854.999906)"><g><path d="M 71.046875 0 L 71.046875 -101.953125 L -0.296875 -215.328125 L 60.9375 -215.328125 L 98.734375 -151.765625 L 136.8125 -215.328125 L 197.75 -215.328125 L 126.859375 -102.828125 L 126.859375 0 Z M 71.046875 0 "/></g></g></g></svg>