<svg xmlns="http://www.w3.org/2000/svg" xmlns:xlink="http://www.w3.org/1999/xlink" width="1640" zoomAndPan="magnify" viewBox="0 0 1230 359.999987" height="480" preserveAspectRatio="xMidYMid meet" version="1.0"><defs><g/><clipPath id="551429ca6a"><path d="M 0.0195312 0 L 1229.980469 0 L 1229.980469 357.75 L 0.0195312 357.75 Z M 0.0195312 0 " clip-rule="nonzero"/></clipPath></defs><g clip-path="url(#551429ca6a)"><path stroke-linecap="butt" transform="matrix(0.75, 0, 0, 0.75, 0.0199571, -0.000000000000085265)" fill="none" stroke-linejoin="miter" d="M -0.000567845 0.000000000000113687 L 1639.947373 0.000000000000113687 L 1639.947373 477.468757 L -0.000567845 477.468757 Z M -0.000567845 0.000000000000113687 " stroke="#000000" stroke-width="50" stroke-opacity="1" stroke-miterlimit="4"/></g><g fill="#000000" fill-opacity="1"><g transform="translate(70.089817, 283.506221)"><g><path d="M 117.59375 2.921875 C 101.851562 2.921875 87.398438 0.320312 74.234375 -4.875 C 61.078125 -10.070312 49.664062 -17.503906 40 -27.171875 C 30.332031 -36.835938 22.847656 -48.375 17.546875 -61.78125 C 12.253906 -75.1875 9.609375 -90.097656 9.609375 -106.515625 C 9.609375 -123.222656 12.351562 -138.375 17.84375 -151.96875 C 23.332031 -165.570312 31.03125 -177.226562 40.9375 -186.9375 C 50.851562 -196.65625 62.609375 -204.140625 76.203125 -209.390625 C 89.804688 -214.640625 104.671875 -217.265625 120.796875 -217.265625 C 135.171875 -217.265625 148.476562 -215.222656 160.71875 -211.140625 C 172.957031 -207.054688 183.882812 -201.25 193.5 -193.71875 C 203.125 -186.195312 211.046875 -177.140625 217.265625 -166.546875 L 169.75 -141.203125 C 164.414062 -150.722656 157.59375 -157.859375 149.28125 -162.609375 C 140.976562 -167.367188 131.484375 -169.75 120.796875 -169.75 C 110.109375 -169.75 100.535156 -167.34375 92.078125 -162.53125 C 83.628906 -157.726562 77 -150.738281 72.1875 -141.5625 C 67.382812 -132.382812 64.984375 -121.1875 64.984375 -107.96875 C 64.984375 -95.632812 67.242188 -84.679688 71.765625 -75.109375 C 76.285156 -65.546875 82.867188 -58.039062 91.515625 -52.59375 C 100.160156 -47.15625 110.648438 -44.4375 122.984375 -44.4375 C 128.128906 -44.4375 133.300781 -44.992188 138.5 -46.109375 C 143.695312 -47.234375 148.601562 -49.054688 153.21875 -51.578125 C 157.832031 -54.109375 161.863281 -57.460938 165.3125 -61.640625 C 168.757812 -65.816406 171.359375 -70.914062 173.109375 -76.9375 L 123.28125 -76.9375 L 123.28125 -120.796875 L 224.984375 -120.796875 L 224.984375 0 L 182 0 L 182 -23.015625 C 175.289062 -15.054688 166.691406 -8.742188 156.203125 -4.078125 C 145.710938 0.585938 132.84375 2.921875 117.59375 2.921875 Z M 117.59375 2.921875 "/></g></g><g transform="translate(310.667926, 283.506221)"><g><path d="M 135.21875 0 L 79.84375 -83.78125 L 79.40625 -83.78125 L 79.40625 0 L 23.890625 0 L 23.890625 -214.203125 L 97.34375 -214.203125 C 106.375 -214.203125 114.140625 -213.882812 120.640625 -213.25 C 127.148438 -212.625 132.785156 -211.726562 137.546875 -210.5625 C 142.304688 -209.394531 146.582031 -207.9375 150.375 -206.1875 C 161.9375 -200.644531 170.191406 -192.820312 175.140625 -182.71875 C 180.097656 -172.625 182.578125 -160.773438 182.578125 -147.171875 C 182.578125 -139.492188 181.484375 -132.15625 179.296875 -125.15625 C 177.109375 -118.164062 173.632812 -111.851562 168.875 -106.21875 C 164.125 -100.59375 157.859375 -95.929688 150.078125 -92.234375 C 148.234375 -91.359375 146.265625 -90.53125 144.171875 -89.75 C 142.085938 -88.976562 139.785156 -88.253906 137.265625 -87.578125 L 201.078125 0 Z M 118.75 -163.484375 C 115.445312 -165.921875 111.460938 -167.332031 106.796875 -167.71875 C 102.140625 -168.101562 96.265625 -168.296875 89.171875 -168.296875 L 79.40625 -168.296875 L 79.40625 -118.46875 L 89.171875 -118.46875 C 96.554688 -118.46875 102.601562 -118.660156 107.3125 -119.046875 C 112.03125 -119.429688 115.941406 -120.84375 119.046875 -123.28125 C 121.472656 -125.019531 123.414062 -127.46875 124.875 -130.625 C 126.332031 -133.789062 127.0625 -137.992188 127.0625 -143.234375 C 127.0625 -148.484375 126.285156 -152.734375 124.734375 -155.984375 C 123.179688 -159.242188 121.1875 -161.742188 118.75 -163.484375 Z M 118.75 -163.484375 "/></g></g><g transform="translate(513.068288, 283.506221)"><g><path d="M 171.0625 0 L 157.21875 -39.640625 L 71.546875 -39.640625 L 57.84375 0 L 1.453125 0 L 80.28125 -214.203125 L 148.625 -214.203125 L 227.453125 0 Z M 87.421875 -85.390625 L 141.34375 -85.390625 L 114.390625 -162.90625 Z M 87.421875 -85.390625 "/></g></g><g transform="translate(741.98907, 283.506221)"><g><path d="M 23.890625 0 L 23.890625 -214.203125 L 106.8125 -214.203125 C 124.289062 -214.203125 139.5625 -211.695312 152.625 -206.6875 C 165.695312 -201.6875 176.554688 -194.5 185.203125 -185.125 C 193.847656 -175.75 200.304688 -164.476562 204.578125 -151.3125 C 208.859375 -138.15625 211 -123.414062 211 -107.09375 C 211 -90.875 208.859375 -76.179688 204.578125 -63.015625 C 200.304688 -49.859375 193.847656 -38.59375 185.203125 -29.21875 C 176.554688 -19.84375 165.695312 -12.628906 152.625 -7.578125 C 139.5625 -2.523438 124.289062 0 106.8125 0 Z M 79.40625 -48.671875 L 103.890625 -48.671875 C 120.703125 -48.671875 133.015625 -53.523438 140.828125 -63.234375 C 148.648438 -72.953125 152.5625 -87.570312 152.5625 -107.09375 C 152.5625 -126.71875 148.648438 -141.4375 140.828125 -151.25 C 133.015625 -161.0625 120.703125 -165.96875 103.890625 -165.96875 L 79.40625 -165.96875 Z M 79.40625 -48.671875 "/></g></g><g transform="translate(963.478306, 283.506221)"><g><path d="M 70.671875 0 L 70.671875 -101.421875 L -0.296875 -214.203125 L 60.609375 -214.203125 L 98.21875 -150.953125 L 136.09375 -214.203125 L 196.71875 -214.203125 L 126.1875 -102.296875 L 126.1875 0 Z M 70.671875 0 "/></g></g></g></svg>